# xmcd CD database file
#
# Track frame offsets:
#	183
#	9173
#	25298
#	36473
#	50498
#	63023
#	76823
#	101495
#	123773
#	144633
#	165255
#	183245
#	198468
#	224045
#	293490
#
# Disc length: 4174 seconds
#
# Revision: 0
# Processed by: cddbd v1.5.2PL0 Copyright (c) Steve Scherf et al.
# Submitted via: CDex 1.51
#
DISCID=c5104c0f
DTITLE=Regimental Band of the Coldstream Guards - London Salute
DYEAR=1995
DGENRE=Brassband
TTITLE0=London Salute
TTITLE1=Cockney Suite - A State Procession
TTITLE2=Cockney Suite - The Cockney Lover
TTITLE3=Cockney Suite - Bank Holiday
TTITLE4=Westminster Waltz
TTITLE5=Birdcage Walk
TTITLE6=Clarinet on the Town
TTITLE7=Royal Windsor
TTITLE8=London Suite - Covent Garden
TTITLE9=London Suite - Knightsbridge (In Town Tonight)
TTITLE10=A Nightingale Sang in Berkeley Square
TTITLE11=Cockney Cocktail
TTITLE12=A Foggy Day in London Town
TTITLE13=Overture: Cockaigne (In London Town)
TTITLE14=March Finale - The Boys of the Old Brigade - When the Guards Are on Parade - The Coldstream March
EXTD=YEAR: 1995
EXTT0=
EXTT1=
EXTT2=
EXTT3=
EXTT4=
EXTT5=
EXTT6=
EXTT7=
EXTT8=
EXTT9=
EXTT10=
EXTT11=
EXTT12=
EXTT13=
EXTT14=
PLAYORDER=
